<mxfile host="app.diagrams.net" modified="2023-10-27T07:05:48.970Z" agent="Mozilla/5.0 (Macintosh; Intel Mac OS X 10_15_7) AppleWebKit/537.36 (KHTML, like Gecko) Chrome/118.0.0.0 Safari/537.36" etag="xwwHiE9-HwoVItqTEB0q" version="22.0.8" type="github">
  <diagram name="第 1 页" id="z8NGpIX9u0qulxh_TLIZ">
    <mxGraphModel dx="1984" dy="821" grid="1" gridSize="10" guides="1" tooltips="1" connect="1" arrows="1" fold="1" page="1" pageScale="1" pageWidth="827" pageHeight="1169" math="0" shadow="0">
      <root>
        <mxCell id="0" />
        <mxCell id="1" parent="0" />
        <mxCell id="_DOz4o24hShDJf7opEV6-2" value="&lt;b&gt;meta manager&lt;/b&gt;" style="text;html=1;align=center;verticalAlign=middle;resizable=0;points=[];autosize=1;strokeColor=none;fillColor=none;" parent="1" vertex="1">
          <mxGeometry x="40" y="221" width="100" height="30" as="geometry" />
        </mxCell>
        <mxCell id="_DOz4o24hShDJf7opEV6-3" value="" style="rounded=0;whiteSpace=wrap;html=1;dashed=1;dashPattern=12 12;" parent="1" vertex="1">
          <mxGeometry x="40" y="251" width="360" height="80" as="geometry" />
        </mxCell>
        <mxCell id="_DOz4o24hShDJf7opEV6-4" value="label meta" style="rounded=0;whiteSpace=wrap;html=1;fillColor=#f5f5f5;fontColor=#333333;strokeColor=#666666;" parent="1" vertex="1">
          <mxGeometry x="65" y="267" width="80" height="50" as="geometry" />
        </mxCell>
        <mxCell id="_DOz4o24hShDJf7opEV6-5" value="table meta" style="rounded=0;whiteSpace=wrap;html=1;fillColor=#f5f5f5;fontColor=#333333;strokeColor=#666666;" parent="1" vertex="1">
          <mxGeometry x="178" y="267" width="80" height="50" as="geometry" />
        </mxCell>
        <mxCell id="_DOz4o24hShDJf7opEV6-6" value="task meta" style="rounded=0;whiteSpace=wrap;html=1;fillColor=#f5f5f5;fontColor=#333333;strokeColor=#666666;" parent="1" vertex="1">
          <mxGeometry x="290" y="267" width="80" height="50" as="geometry" />
        </mxCell>
        <mxCell id="_DOz4o24hShDJf7opEV6-7" value="" style="rounded=0;whiteSpace=wrap;html=1;dashed=1;dashPattern=12 12;" parent="1" vertex="1">
          <mxGeometry x="80" y="440" width="270" height="90" as="geometry" />
        </mxCell>
        <mxCell id="_DOz4o24hShDJf7opEV6-8" value="&lt;b&gt;task manager&lt;/b&gt;" style="text;html=1;align=center;verticalAlign=middle;resizable=0;points=[];autosize=1;strokeColor=none;fillColor=none;" parent="1" vertex="1">
          <mxGeometry x="80" y="410" width="100" height="30" as="geometry" />
        </mxCell>
        <mxCell id="_DOz4o24hShDJf7opEV6-11" value="distributed&lt;br&gt;bitmap" style="shape=cylinder3;whiteSpace=wrap;html=1;boundedLbl=1;backgroundOutline=1;size=15;fillColor=#f9f7ed;strokeColor=#36393d;" parent="1" vertex="1">
          <mxGeometry x="640" y="380" width="80" height="90" as="geometry" />
        </mxCell>
        <mxCell id="_DOz4o24hShDJf7opEV6-13" value="" style="shape=flexArrow;endArrow=classic;html=1;rounded=0;" parent="1" edge="1">
          <mxGeometry width="50" height="50" relative="1" as="geometry">
            <mxPoint x="679.5" y="600" as="sourcePoint" />
            <mxPoint x="679.86" y="503.07" as="targetPoint" />
          </mxGeometry>
        </mxCell>
        <mxCell id="_DOz4o24hShDJf7opEV6-14" value="Sink" style="text;html=1;align=center;verticalAlign=middle;resizable=0;points=[];autosize=1;strokeColor=none;fillColor=none;" parent="1" vertex="1">
          <mxGeometry x="615" y="540" width="50" height="30" as="geometry" />
        </mxCell>
        <mxCell id="_DOz4o24hShDJf7opEV6-15" value="task checker" style="rounded=0;whiteSpace=wrap;html=1;fillColor=#f5f5f5;fontColor=#333333;strokeColor=#666666;" parent="1" vertex="1">
          <mxGeometry x="110" y="460" width="80" height="50" as="geometry" />
        </mxCell>
        <mxCell id="_DOz4o24hShDJf7opEV6-16" value="task scheduler" style="rounded=0;whiteSpace=wrap;html=1;fillColor=#f5f5f5;fontColor=#333333;strokeColor=#666666;" parent="1" vertex="1">
          <mxGeometry x="240" y="460" width="80" height="50" as="geometry" />
        </mxCell>
        <mxCell id="_DOz4o24hShDJf7opEV6-17" value="" style="shape=flexArrow;endArrow=classic;startArrow=classic;html=1;rounded=0;" parent="1" edge="1">
          <mxGeometry width="100" height="100" relative="1" as="geometry">
            <mxPoint x="210" y="430" as="sourcePoint" />
            <mxPoint x="210" y="340" as="targetPoint" />
          </mxGeometry>
        </mxCell>
        <mxCell id="_DOz4o24hShDJf7opEV6-18" value="Check table &lt;br&gt;is ready?" style="text;html=1;align=center;verticalAlign=middle;resizable=0;points=[];autosize=1;strokeColor=none;fillColor=none;" parent="1" vertex="1">
          <mxGeometry x="110" y="360" width="90" height="40" as="geometry" />
        </mxCell>
        <mxCell id="_DOz4o24hShDJf7opEV6-19" value="Report&lt;br&gt;metrics and quality" style="text;html=1;align=center;verticalAlign=middle;resizable=0;points=[];autosize=1;strokeColor=none;fillColor=none;" parent="1" vertex="1">
          <mxGeometry x="240" y="370" width="120" height="40" as="geometry" />
        </mxCell>
        <mxCell id="_DOz4o24hShDJf7opEV6-23" value="" style="rounded=0;whiteSpace=wrap;html=1;dashed=1;dashPattern=12 12;" parent="1" vertex="1">
          <mxGeometry x="41" y="610" width="349" height="90" as="geometry" />
        </mxCell>
        <mxCell id="_DOz4o24hShDJf7opEV6-24" value="&lt;b&gt;build engine&lt;/b&gt;" style="text;html=1;align=center;verticalAlign=middle;resizable=0;points=[];autosize=1;strokeColor=none;fillColor=none;" parent="1" vertex="1">
          <mxGeometry x="37" y="570" width="90" height="30" as="geometry" />
        </mxCell>
        <mxCell id="_DOz4o24hShDJf7opEV6-25" value="id mapping builder" style="rounded=0;whiteSpace=wrap;html=1;fillColor=#f5f5f5;fontColor=#333333;strokeColor=#666666;" parent="1" vertex="1">
          <mxGeometry x="57" y="630" width="80" height="50" as="geometry" />
        </mxCell>
        <mxCell id="_DOz4o24hShDJf7opEV6-26" value="bitmap builder" style="rounded=0;whiteSpace=wrap;html=1;fillColor=#f5f5f5;fontColor=#333333;strokeColor=#666666;" parent="1" vertex="1">
          <mxGeometry x="173" y="630" width="80" height="50" as="geometry" />
        </mxCell>
        <mxCell id="_DOz4o24hShDJf7opEV6-27" value="batch writer" style="rounded=0;whiteSpace=wrap;html=1;fillColor=#f5f5f5;fontColor=#333333;strokeColor=#666666;" parent="1" vertex="1">
          <mxGeometry x="288" y="630" width="80" height="50" as="geometry" />
        </mxCell>
        <mxCell id="_DOz4o24hShDJf7opEV6-28" value="" style="group" parent="1" vertex="1" connectable="0">
          <mxGeometry x="590" y="600" width="160" height="90" as="geometry" />
        </mxCell>
        <mxCell id="_DOz4o24hShDJf7opEV6-9" value="&lt;b&gt;Spark Cluster&lt;/b&gt;" style="ellipse;shape=cloud;whiteSpace=wrap;html=1;fillColor=#CCCCCC;" parent="_DOz4o24hShDJf7opEV6-28" vertex="1">
          <mxGeometry width="160" height="90" as="geometry" />
        </mxCell>
        <mxCell id="_DOz4o24hShDJf7opEV6-30" value="" style="group" parent="1" vertex="1" connectable="0">
          <mxGeometry x="-200" y="161" width="160" height="90" as="geometry" />
        </mxCell>
        <mxCell id="_DOz4o24hShDJf7opEV6-31" value="upstream table &lt;br&gt;&amp;amp; profile meta" style="ellipse;shape=cloud;whiteSpace=wrap;html=1;" parent="_DOz4o24hShDJf7opEV6-30" vertex="1">
          <mxGeometry width="160" height="90" as="geometry" />
        </mxCell>
        <mxCell id="_DOz4o24hShDJf7opEV6-33" value="" style="endArrow=classic;html=1;rounded=0;entryX=0;entryY=0.5;entryDx=0;entryDy=0;" parent="1" source="_DOz4o24hShDJf7opEV6-31" target="_DOz4o24hShDJf7opEV6-3" edge="1">
          <mxGeometry width="50" height="50" relative="1" as="geometry">
            <mxPoint x="-20" y="331" as="sourcePoint" />
            <mxPoint x="30" y="281" as="targetPoint" />
          </mxGeometry>
        </mxCell>
        <mxCell id="_DOz4o24hShDJf7opEV6-34" value="register&amp;amp;manage" style="edgeLabel;html=1;align=center;verticalAlign=middle;resizable=0;points=[];" parent="_DOz4o24hShDJf7opEV6-33" vertex="1" connectable="0">
          <mxGeometry x="-0.0828" y="2" relative="1" as="geometry">
            <mxPoint as="offset" />
          </mxGeometry>
        </mxCell>
        <mxCell id="_DOz4o24hShDJf7opEV6-35" value="" style="shape=flexArrow;endArrow=classic;html=1;rounded=0;" parent="1" edge="1">
          <mxGeometry width="50" height="50" relative="1" as="geometry">
            <mxPoint x="220" y="545" as="sourcePoint" />
            <mxPoint x="220" y="595" as="targetPoint" />
          </mxGeometry>
        </mxCell>
        <mxCell id="_DOz4o24hShDJf7opEV6-36" value="Dispatch Task" style="text;html=1;align=center;verticalAlign=middle;resizable=0;points=[];autosize=1;strokeColor=none;fillColor=none;" parent="1" vertex="1">
          <mxGeometry x="228" y="550" width="100" height="30" as="geometry" />
        </mxCell>
        <mxCell id="_DOz4o24hShDJf7opEV6-37" value="" style="shape=flexArrow;endArrow=classic;html=1;rounded=0;" parent="1" edge="1">
          <mxGeometry width="50" height="50" relative="1" as="geometry">
            <mxPoint x="440" y="654.5" as="sourcePoint" />
            <mxPoint x="570" y="654.5" as="targetPoint" />
          </mxGeometry>
        </mxCell>
        <mxCell id="_DOz4o24hShDJf7opEV6-38" value="Running On" style="text;html=1;align=center;verticalAlign=middle;resizable=0;points=[];autosize=1;strokeColor=none;fillColor=none;" parent="1" vertex="1">
          <mxGeometry x="445" y="608" width="90" height="30" as="geometry" />
        </mxCell>
        <mxCell id="_DOz4o24hShDJf7opEV6-39" value="Online Service" style="ellipse;shape=cloud;whiteSpace=wrap;html=1;fillColor=#CCCCCC;" parent="1" vertex="1">
          <mxGeometry x="819" y="380" width="120" height="80" as="geometry" />
        </mxCell>
        <mxCell id="_DOz4o24hShDJf7opEV6-40" value="" style="shape=flexArrow;endArrow=classic;html=1;rounded=0;" parent="1" edge="1">
          <mxGeometry width="50" height="50" relative="1" as="geometry">
            <mxPoint x="740" y="424" as="sourcePoint" />
            <mxPoint x="810" y="424" as="targetPoint" />
          </mxGeometry>
        </mxCell>
        <mxCell id="_DOz4o24hShDJf7opEV6-41" value="Retrieve" style="text;html=1;align=center;verticalAlign=middle;resizable=0;points=[];autosize=1;strokeColor=none;fillColor=none;" parent="1" vertex="1">
          <mxGeometry x="730" y="382" width="70" height="30" as="geometry" />
        </mxCell>
        <mxCell id="yFQduWRiAVguTOrcRiwA-7" value="" style="group" vertex="1" connectable="0" parent="1">
          <mxGeometry x="455" y="221" width="430" height="111" as="geometry" />
        </mxCell>
        <mxCell id="yFQduWRiAVguTOrcRiwA-1" value="" style="rounded=0;whiteSpace=wrap;html=1;dashed=1;dashPattern=12 12;" vertex="1" parent="yFQduWRiAVguTOrcRiwA-7">
          <mxGeometry y="31" width="430" height="80" as="geometry" />
        </mxCell>
        <mxCell id="yFQduWRiAVguTOrcRiwA-2" value="&lt;b&gt;metric center&lt;/b&gt;" style="text;html=1;align=center;verticalAlign=middle;resizable=0;points=[];autosize=1;strokeColor=none;fillColor=none;" vertex="1" parent="yFQduWRiAVguTOrcRiwA-7">
          <mxGeometry width="100" height="30" as="geometry" />
        </mxCell>
        <mxCell id="yFQduWRiAVguTOrcRiwA-3" value="task metric" style="rounded=0;whiteSpace=wrap;html=1;fillColor=#f5f5f5;fontColor=#333333;strokeColor=#666666;" vertex="1" parent="yFQduWRiAVguTOrcRiwA-7">
          <mxGeometry x="24" y="45" width="80" height="50" as="geometry" />
        </mxCell>
        <mxCell id="yFQduWRiAVguTOrcRiwA-4" value="table metric" style="rounded=0;whiteSpace=wrap;html=1;fillColor=#f5f5f5;fontColor=#333333;strokeColor=#666666;" vertex="1" parent="yFQduWRiAVguTOrcRiwA-7">
          <mxGeometry x="127" y="45" width="80" height="50" as="geometry" />
        </mxCell>
        <mxCell id="yFQduWRiAVguTOrcRiwA-5" value="task metric" style="rounded=0;whiteSpace=wrap;html=1;fillColor=#f5f5f5;fontColor=#333333;strokeColor=#666666;" vertex="1" parent="yFQduWRiAVguTOrcRiwA-7">
          <mxGeometry x="231" y="46" width="80" height="50" as="geometry" />
        </mxCell>
        <mxCell id="yFQduWRiAVguTOrcRiwA-6" value="metric board" style="rounded=0;whiteSpace=wrap;html=1;fillColor=#f5f5f5;fontColor=#333333;strokeColor=#666666;" vertex="1" parent="yFQduWRiAVguTOrcRiwA-7">
          <mxGeometry x="334" y="45" width="80" height="50" as="geometry" />
        </mxCell>
        <mxCell id="yFQduWRiAVguTOrcRiwA-10" value="" style="endArrow=classic;html=1;rounded=0;exitX=1;exitY=0.5;exitDx=0;exitDy=0;entryX=0.5;entryY=1;entryDx=0;entryDy=0;" edge="1" parent="1" source="_DOz4o24hShDJf7opEV6-7" target="yFQduWRiAVguTOrcRiwA-3">
          <mxGeometry width="50" height="50" relative="1" as="geometry">
            <mxPoint x="400" y="520" as="sourcePoint" />
            <mxPoint x="450" y="470" as="targetPoint" />
          </mxGeometry>
        </mxCell>
      </root>
    </mxGraphModel>
  </diagram>
</mxfile>
